<mxfile host="app.diagrams.net" modified="2021-08-08T15:09:12.438Z" agent="5.0 (Macintosh; Intel Mac OS X 10_15_5) AppleWebKit/537.36 (KHTML, like Gecko) Chrome/92.0.4515.131 Safari/537.36" etag="f944WuSHTO-_MDQ19RYw" version="14.9.3" type="github">
  <diagram id="lMZxWY8vp80AYq6Nmsda" name="Page-1">
    <mxGraphModel dx="1426" dy="737" grid="1" gridSize="10" guides="1" tooltips="1" connect="1" arrows="1" fold="1" page="1" pageScale="1" pageWidth="827" pageHeight="1169" math="0" shadow="0">
      <root>
        <mxCell id="0" />
        <mxCell id="1" parent="0" />
        <mxCell id="-qjMKxULYnQZQB8kUf1q-15" style="rounded=0;orthogonalLoop=1;jettySize=auto;html=1;exitX=1;exitY=0.5;exitDx=0;exitDy=0;entryX=0;entryY=0.5;entryDx=0;entryDy=0;" edge="1" parent="1" source="-qjMKxULYnQZQB8kUf1q-1" target="-qjMKxULYnQZQB8kUf1q-2">
          <mxGeometry relative="1" as="geometry" />
        </mxCell>
        <mxCell id="-qjMKxULYnQZQB8kUf1q-1" value="main函数监听端口接收请求" style="rounded=0;whiteSpace=wrap;html=1;" vertex="1" parent="1">
          <mxGeometry x="80" y="260" width="60" height="150" as="geometry" />
        </mxCell>
        <mxCell id="-qjMKxULYnQZQB8kUf1q-16" value="" style="edgeStyle=none;rounded=0;orthogonalLoop=1;jettySize=auto;html=1;" edge="1" parent="1" source="-qjMKxULYnQZQB8kUf1q-2" target="-qjMKxULYnQZQB8kUf1q-4">
          <mxGeometry relative="1" as="geometry" />
        </mxCell>
        <mxCell id="-qjMKxULYnQZQB8kUf1q-2" value="路由功能" style="rounded=0;whiteSpace=wrap;html=1;" vertex="1" parent="1">
          <mxGeometry x="190" y="260" width="120" height="60" as="geometry" />
        </mxCell>
        <mxCell id="-qjMKxULYnQZQB8kUf1q-33" style="edgeStyle=none;rounded=0;orthogonalLoop=1;jettySize=auto;html=1;entryX=1;entryY=0.5;entryDx=0;entryDy=0;" edge="1" parent="1" source="-qjMKxULYnQZQB8kUf1q-3" target="-qjMKxULYnQZQB8kUf1q-1">
          <mxGeometry relative="1" as="geometry" />
        </mxCell>
        <mxCell id="-qjMKxULYnQZQB8kUf1q-3" value="视图输出" style="rounded=0;whiteSpace=wrap;html=1;" vertex="1" parent="1">
          <mxGeometry x="190" y="350" width="120" height="60" as="geometry" />
        </mxCell>
        <mxCell id="-qjMKxULYnQZQB8kUf1q-17" value="" style="edgeStyle=none;rounded=0;orthogonalLoop=1;jettySize=auto;html=1;" edge="1" parent="1" source="-qjMKxULYnQZQB8kUf1q-4" target="-qjMKxULYnQZQB8kUf1q-8">
          <mxGeometry relative="1" as="geometry" />
        </mxCell>
        <mxCell id="-qjMKxULYnQZQB8kUf1q-4" value="参数过滤" style="rounded=0;whiteSpace=wrap;html=1;" vertex="1" parent="1">
          <mxGeometry x="354" y="260" width="120" height="60" as="geometry" />
        </mxCell>
        <mxCell id="-qjMKxULYnQZQB8kUf1q-32" style="edgeStyle=none;rounded=0;orthogonalLoop=1;jettySize=auto;html=1;entryX=1;entryY=0.5;entryDx=0;entryDy=0;" edge="1" parent="1" source="-qjMKxULYnQZQB8kUf1q-5" target="-qjMKxULYnQZQB8kUf1q-3">
          <mxGeometry relative="1" as="geometry" />
        </mxCell>
        <mxCell id="-qjMKxULYnQZQB8kUf1q-5" value="输出过滤" style="rounded=0;whiteSpace=wrap;html=1;" vertex="1" parent="1">
          <mxGeometry x="354" y="350" width="120" height="60" as="geometry" />
        </mxCell>
        <mxCell id="-qjMKxULYnQZQB8kUf1q-24" style="rounded=0;orthogonalLoop=1;jettySize=auto;html=1;entryX=0;entryY=0.5;entryDx=0;entryDy=0;" edge="1" parent="1" source="-qjMKxULYnQZQB8kUf1q-8" target="-qjMKxULYnQZQB8kUf1q-10">
          <mxGeometry relative="1" as="geometry">
            <Array as="points">
              <mxPoint x="600" y="290" />
            </Array>
          </mxGeometry>
        </mxCell>
        <mxCell id="-qjMKxULYnQZQB8kUf1q-26" style="edgeStyle=none;rounded=0;orthogonalLoop=1;jettySize=auto;html=1;entryX=0;entryY=0.5;entryDx=0;entryDy=0;" edge="1" parent="1" source="-qjMKxULYnQZQB8kUf1q-8" target="-qjMKxULYnQZQB8kUf1q-9">
          <mxGeometry relative="1" as="geometry" />
        </mxCell>
        <mxCell id="-qjMKxULYnQZQB8kUf1q-27" style="edgeStyle=none;rounded=0;orthogonalLoop=1;jettySize=auto;html=1;" edge="1" parent="1" source="-qjMKxULYnQZQB8kUf1q-8" target="-qjMKxULYnQZQB8kUf1q-11">
          <mxGeometry relative="1" as="geometry" />
        </mxCell>
        <mxCell id="-qjMKxULYnQZQB8kUf1q-29" style="edgeStyle=none;rounded=0;orthogonalLoop=1;jettySize=auto;html=1;entryX=0;entryY=0.5;entryDx=0;entryDy=0;" edge="1" parent="1" source="-qjMKxULYnQZQB8kUf1q-8" target="-qjMKxULYnQZQB8kUf1q-12">
          <mxGeometry relative="1" as="geometry" />
        </mxCell>
        <mxCell id="-qjMKxULYnQZQB8kUf1q-30" style="edgeStyle=none;rounded=0;orthogonalLoop=1;jettySize=auto;html=1;entryX=0;entryY=0.5;entryDx=0;entryDy=0;" edge="1" parent="1" source="-qjMKxULYnQZQB8kUf1q-8" target="-qjMKxULYnQZQB8kUf1q-13">
          <mxGeometry relative="1" as="geometry" />
        </mxCell>
        <mxCell id="-qjMKxULYnQZQB8kUf1q-31" style="edgeStyle=none;rounded=0;orthogonalLoop=1;jettySize=auto;html=1;entryX=1;entryY=0.5;entryDx=0;entryDy=0;" edge="1" parent="1" source="-qjMKxULYnQZQB8kUf1q-8" target="-qjMKxULYnQZQB8kUf1q-5">
          <mxGeometry relative="1" as="geometry" />
        </mxCell>
        <mxCell id="-qjMKxULYnQZQB8kUf1q-8" value="Controller" style="rounded=0;whiteSpace=wrap;html=1;" vertex="1" parent="1">
          <mxGeometry x="520" y="260" width="60" height="150" as="geometry" />
        </mxCell>
        <mxCell id="-qjMKxULYnQZQB8kUf1q-9" value="Model" style="rounded=0;whiteSpace=wrap;html=1;" vertex="1" parent="1">
          <mxGeometry x="640" y="280" width="120" height="30" as="geometry" />
        </mxCell>
        <mxCell id="-qjMKxULYnQZQB8kUf1q-10" value="辅助工具包" style="rounded=0;whiteSpace=wrap;html=1;" vertex="1" parent="1">
          <mxGeometry x="640" y="240" width="120" height="30" as="geometry" />
        </mxCell>
        <mxCell id="-qjMKxULYnQZQB8kUf1q-11" value="Session" style="rounded=0;whiteSpace=wrap;html=1;" vertex="1" parent="1">
          <mxGeometry x="640" y="320" width="120" height="30" as="geometry" />
        </mxCell>
        <mxCell id="-qjMKxULYnQZQB8kUf1q-12" value="日志处理" style="rounded=0;whiteSpace=wrap;html=1;" vertex="1" parent="1">
          <mxGeometry x="640" y="360" width="120" height="30" as="geometry" />
        </mxCell>
        <mxCell id="-qjMKxULYnQZQB8kUf1q-13" value="缓存处理" style="rounded=0;whiteSpace=wrap;html=1;" vertex="1" parent="1">
          <mxGeometry x="640" y="400" width="120" height="30" as="geometry" />
        </mxCell>
      </root>
    </mxGraphModel>
  </diagram>
</mxfile>
